<svg xmlns="http://www.w3.org/2000/svg" width="32.969" height="23.094" viewBox="0 0 32.969 23.094">
  <metadata><?xpacket begin="﻿" id="W5M0MpCehiHzreSzNTczkc9d"?>
<x:xmpmeta xmlns:x="adobe:ns:meta/" x:xmptk="Adobe XMP Core 5.6-c138 79.159824, 2016/09/14-01:09:01        ">
   <rdf:RDF xmlns:rdf="http://www.w3.org/1999/02/22-rdf-syntax-ns#">
      <rdf:Description rdf:about=""/>
   </rdf:RDF>
</x:xmpmeta>
                                                                                                    
                                                                                                    
                                                                                                    
                                                                                                    
                                                                                                    
                                                                                                    
                                                                                                    
                                                                                                    
                                                                                                    
                                                                                                    
                                                                                                    
                                                                                                    
                                                                                                    
                                                                                                    
                                                                                                    
                                                                                                    
                                                                                                    
                                                                                                    
                                                                                                    
                                                                                                    
                           
<?xpacket end="w"?></metadata>
<defs>
    <style>
      .cls-1 {
        fill: #fff;
        fill-rule: evenodd;
      }
    </style>
  </defs>
  <path id="Item_3" data-name="Item 3" class="cls-1" d="M50.5,200c2.333,0,5.083-2,6.5-2,8.583,0,13.417,23,7,23-4,0-7.521-6.667-13.521-6.667-7.416,0-8.146,6.75-13.562,6.75C30.5,221.083,35.416,198,44,198,45.25,198,48.166,200,50.5,200Zm8,3.5a1,1,0,1,1-1,1A1,1,0,0,1,58.5,203.5Zm3,3a1,1,0,1,1-1,1A1,1,0,0,1,61.5,206.5Zm-3,3a1,1,0,1,1-1,1A1,1,0,0,1,58.5,209.5Zm-3.062-3a1,1,0,1,1-1,1A1,1,0,0,1,55.437,206.5ZM43.5,202a4.5,4.5,0,1,1-4.5,4.5A4.5,4.5,0,0,1,43.5,202Zm0,2a2.5,2.5,0,1,1-2.5,2.5A2.5,2.5,0,0,1,43.5,204Z" transform="translate(-33.969 -198)"/>
</svg>
